<?xml version="1.0" encoding="UTF-8"?>
<svg id="Capa_2" data-name="Capa 2" xmlns="http://www.w3.org/2000/svg" xmlns:xlink="http://www.w3.org/1999/xlink" viewBox="0 0 987.2 979.99">
  <defs>
    <style>
      .cls-1, .cls-2 {
        fill: #000;
      }

      .cls-1, .cls-3, .cls-4 {
        stroke: #000;
        stroke-miterlimit: 10;
      }

      .cls-2, .cls-5, .cls-6, .cls-7, .cls-8, .cls-9, .cls-10 {
        stroke-width: 0px;
      }

      .cls-3, .cls-10 {
        fill: #fff;
      }

      .cls-5 {
        fill: #b59a70;
      }

      .cls-6 {
        fill: #699977;
      }

      .cls-7 {
        fill: none;
      }

      .cls-11 {
        clip-path: url(#clippath-1);
      }

      .cls-8, .cls-4 {
        fill: #f99;
      }

      .cls-9 {
        fill: #72c57c;
      }

      .cls-12 {
        clip-path: url(#clippath);
      }
    </style>
    <clipPath id="clippath">
      <polygon class="cls-7" points="523.88 359.49 523.88 359.49 553.09 359.49 553.09 415.64 523.88 415.64 523.88 359.49"/>
    </clipPath>
    <clipPath id="clippath-1">
      <polygon class="cls-7" points="384.85 425.57 384.85 425.57 366.41 448.21 409.95 483.67 428.39 461.02 384.85 425.57"/>
    </clipPath>
  </defs>
  <g id="Capa_3" data-name="Capa 3">
    <ellipse class="cls-3" cx="488.93" cy="490.72" rx="434.45" ry="420.39"/>
  </g>
  <g id="Capa_1-2" data-name="Capa 1">
    <path class="cls-9" d="M313.11,401.49c.68-11.79,3.65-40.67,20.28-57.68,4.76-4.87,16.16-14.41,28.91-23.1,1.03-.7,4.46-3.03,9.12-5.92,14.36-8.92,27.92-15.48,46.36-23.43,20.35-8.78,30.53-13.17,37.16-15.09,19.26-5.58,38.36-11.11,60-4.45,7.54,2.32,15.02,7.16,30,16.84,11.31,7.31,17.69,12.63,19.74,20.9.74,2.99.73,5.6.6,7.35-2.19,1.01-4.3,2.67-6.57,2.92-25.54,2.82-50.13,9.62-74.03,18.65-21.66,8.18-42.94,17.39-64.24,26.5-6.51,2.79-12.61,6.59-18.73,10.23-28.21,16.76-42.94,24.06-47.95,29.1,0,0-20.87,20.97-31.41,25.84-2.94,1.36-4.5.69-4.92.47-2.08-1.06-2.55-4.07-2.71-5.74-.76-7.77-1.11-15.58-1.61-23.38Z"/>
    <path class="cls-4" d="M296.61,371.44c-3.51-5.63-7.37-11.04-11.37-16.9-2.64,3.67-5.32,7.06-7.63,10.68-10.76,16.88-23,33.05-31.74,50.93-12.02,24.59-23.93,49.37-31.22,76.11-5.54,20.33-10.24,40.48-7.3,61.65,1.21,8.68,2.37,17.4,7.54,24.94,2.66,3.88,6.31,5.51,10.8,5.95,8.5.84,13.07-5.24,16.47-10.99,6.31-10.69,11.62-22.03,16.72-33.37,8.62-19.16,14.62-39.09,15.96-60.24.87-13.75,1.23-27.58,3.17-41.19,3.11-21.83,8.14-43.26,18.32-63.13.63-1.24.92-3.38.27-4.42Z"/>
    <path class="cls-5" d="M962.98,609.9c-2.66,35.23-22.97,67.19-38.44,98.46-41.38-24.97-22.77-15.78-52.51,29.53-43.55,72.13-76.99,55.78-32.54,88.93-7.27,8.14-73.33,78.51-80.48,64.44-4.82-5.19-9.89-10.13-14.79-15.24-2.94-3.06-5.33-4.3-9.66-1.22-31.69,24.04-66.78,43.62-106.71,49.18-8.08,1.41-8.96,3.64-7.59,11.46.25,5.1,3.73,23.99-2.51,25.12-32.44,4.84-64.88,12.13-97.81,11.08.6-45.38,3.35-28.45-50.59-29.79-27.14-2.34-54.06-5.98-80.18-13.7-6.17-1.42-8.67.31-9.78,6.69-1.3,7.48-2.73,14.94-4.26,23.27-32.55-6.54-62.45-19.04-93.53-29.96-1.46-.53-3.37-3.24-3.11-4.55,1.55-7.77,3.24-15.56,5.76-23.05,1.56-4.62.79-7.42-3.64-9.26-39.17-14.54-72.55-40.15-99.49-71.74-8.76-3.26-19.3,10-26.95,13.88-9.25,8.34-58.72-68.7-64.93-79.02,6.64-3.89,12.49-7.57,18.57-10.84,7.84-4.21,8.72-6.4,4.15-13.87-11.89-18.96-24.49-37.46-32.46-58.44-9.56-16.38-11.78-35.11-17.85-52.59-2.27-6.55-4.17-7.63-10.51-5.4-7.18,2.53-14.35,5.09-22.47,7.97-11.23-30.53-14.49-62.86-21.11-94.52-.74-3.84,1.2-5.67,4.37-6.59,7.33-2.13,14.66-4.25,22.07-6.06,3.98-.98,6.39-2.08,5.77-7.17-7.69-40.84-.84-81.93,11.91-121.01,4.08-8.84-18.19-13.18-23.82-17.45-15.36-2.6,28.9-86.46,35.07-96.6,44.86,29.16,19.58,10.44,66.82-50.11,9.68-15.76,24.15-27.17,36.2-40.76,4.6-5.19,4.57-8.28-.73-12.76-5.68-4.81-11.25-9.75-17.54-15.22,21.95-24.34,45.65-45.93,72-65.27,2.74-2,4.64-2.15,6.89.02,5.36,5.16,10.9,10.15,15.93,15.62,3.91,4.25,6.26,4.87,10.77,1.33,31.89-25.7,69.46-42.75,109.96-49.34,9.03-.64,1.62-23.29,2.37-29.92-2.75-12.92,89.51-17.49,101.75-16.82,0,7.59.07,14.86-.02,22.13-.1,8.02,1.32,9.5,9.14,9.22,19.13-.37,38.59-3.01,57.4.57,21.84-2,41.6,7.17,62.32,11.03,8.84,1.65,10.81.51,12.2-8.48,1.04-6.71,2.33-13.39,3.62-20.77,31.34,5.85,60.22,18.22,90.2,28.42,7.86,2.8,8.13,3.84,5.6,11.78-1.16,7.83-11.84,21.64-1.72,26.64,35.02,13.02,66.56,33.95,91.12,62.17,4.91,3.81,9.34,14.95,16.3,8.79,7.1-3.18,20.87-20.06,27.32-11.24,21.33,23.84,41.24,49.41,56.77,77.33-42.51,23.34-22.82,13.38,1,62.58,40.61,76.03,8.23,90.02,59.72,70.48,10.86,29.74,17.01,60.82,20.95,92.18.74,6.71.13,7.64-6.33,9.3-6.73,3.12-27.15,2.27-25.57,12.47,5.73,40.14,3.13,80.32-10.86,118.55-.73,3.08-2.09,4.13-5.18,3.52-9.49-1.89-19-3.69-28.51-5.45-9.75-1.81-9.64-1.76-8.43-11.55,17.15-97.14,14.46-202.06-38.34-288.36-29.66-56.6-77.41-100.93-129.26-137.23-82.58-57.94-168.97-88.89-274.14-70.99-79.05,9.87-50.78,3.71-117.23,30.56-53.21,15.87-142.62,86.98-165.84,119.72-8.48,17.91-39.28,59.39-46.51,72.66-32.44,67.58-53.01,161.44-38.69,243.09,13.39,92,79.34,217.1,171.71,276.92,106.97,82.92,258.62,105.22,382.78,49.06,103.9-40.72,179.64-102.93,228.47-204.37,5.71-7.56,8.09-29,16.08-31.15,31.82-12.2,39.94-6.04,79.55-28.26Z"/>
    <path class="cls-1" d="M933.94,357.74c6.29-1.89,13.14-4.08,20.06-6.01,6.15-1.71,8.53-.71,10.51,5.35,3.23,9.92,6.38,19.91,8.75,30.06,3.87,16.64,7.24,33.4,10.5,50.17,1.36,6.99,1.93,14.14,2.83,21.22.58,4.57-1.2,8-5.61,9.34-7.86,2.38-15.84,4.39-24.49,6.76,2.88,40.44-1.26,81.2-12.15,121.85,8.57,1.09,16.68,3.02,24.99-.15,1.82-.69,5.63-.66,5.99.16,1.15,2.58-.03,4.98-3.01,6.32-1.6.71-2.87,2.17-4.64,3.56,4.55,3.01,4.64,7.01,2.95,11.4-6.94,17.94-13.69,35.96-20.89,53.8-3.97,9.85-8.47,19.51-13.16,29.04-2.31,4.7-5.52,8.97-8.46,13.35-2.17,3.23-5.18,3.15-8.27,1.52-3.97-2.09-7.85-4.34-11.79-6.48-2.75-1.49-5.54-2.9-8.76-4.59-18.58,37.27-42.41,70.28-71.69,100.59,4.67,4.3,8.76,8.85,13.61,12.36,6.49,4.69,7.63,9.48,1.29,16.73-7.19,8.22-15.04,15.89-23.03,23.36-12.09,11.3-24.38,22.4-36.92,33.19-5.23,4.5-11.17,8.28-17.14,11.77-1.81,1.06-5.74,1.05-7.13-.2-6.58-5.91-12.61-12.42-18.99-18.87-8.73,5.35-18.1,11.31-27.68,16.91-20.73,12.13-42.93,20.93-65.64,28.54-4.95,1.66-10.02,2.98-15.11,4.15-2.83.65-3.25,2.2-3.01,4.69.61,6.26.71,12.58,1.65,18.78,1.09,7.2-1.04,10.5-9.41,11.84-24.29,3.89-48.69,7.09-73.1,10.15-8.2,1.03-16.55,1.16-24.83,1.08-8-.08-9.89-2.15-10.21-10.16-.27-6.63-.05-13.27-.05-20.47-42.39,2.27-83.33-1.56-124.19-12.02-1.46,6.79-2.82,13.08-4.16,19.37-1.81,8.5-4.24,10.11-12.88,8.35-24.25-4.95-47.84-12.14-70.92-20.99-8.62-3.3-17.15-6.87-25.63-10.52-4.34-1.87-5.47-5.65-4.39-9.93,1.58-6.27,3.34-12.5,5.32-18.65,1.16-3.59.43-5.37-3.08-7.39-16.81-9.62-33.95-18.84-49.83-29.85-12.84-8.91-24.07-20.15-35.98-30.4-3.36-2.89-6.6-5.93-8.88-7.98-7.93,5.1-15.33,10.28-23.2,14.59-1.85,1.01-6.49.03-7.87-1.65-14.56-17.77-29.02-35.64-42.86-53.98-6.96-9.22-12.91-19.26-18.69-29.28-4.04-7.01-3.28-9.04,3.44-13.59,5.34-3.62,11.03-6.73,17.11-10.4-22.67-34.74-40.03-71.8-50.85-112.41-6.03,1.89-11.49,3.52-16.91,5.31-10.57,3.49-13.22,2.29-16.46-8.63-8.38-28.22-14.87-56.88-19.23-86-.57-3.77-.81-7.59-1.16-11.39-.38-4.07.9-7.5,5.01-8.74,8.01-2.41,16.14-4.44,25.15-6.88-2.59-40,1-80.47,11.85-120.57-3.42-1.47-6.62-2.71-9.7-4.21-4.74-2.31-9.81-4.26-13.89-7.46-2.05-1.61-3.74-6.14-2.96-8.48,5.01-15.08,10.18-30.16,16.39-44.77,7.01-16.47,15.19-32.45,22.85-48.65,4.06-8.59,7.38-9.69,15.62-5.01,4.19,2.38,8.27,4.94,12.46,7.31,2.85,1.6,4.61,1.47,6.56-2.11,14.55-26.66,29.82-52.85,50.77-75.23,6.34-6.77,12.12-14.06,18.62-21.66-2.1-1.89-4.26-3.81-6.4-5.76-3.18-2.91-6.41-5.78-9.5-8.79-3.13-3.04-4.2-6.6-1.08-10.17,7.19-8.21,14.07-16.77,21.97-24.24,14.21-13.43,29-26.24,43.72-39.11,4.1-3.58,8.74-6.55,13.27-9.6,3.16-2.12,6.03-.82,8.48,1.56,6.1,5.91,12.15,11.87,18.57,18.15,33.64-23.12,70.82-40.02,110.94-50.42-.59-7.99-1.22-15.87-1.73-23.75-.41-6.34,1.55-9.12,7.47-10.37,31.85-6.76,64.11-10.25,96.59-11.88,1.65-.08,3.31.24,4.97.39,6.51.57,8.73,2.87,8.87,9.48.09,4.16-.14,8.33-.04,12.49.06,2.61.47,5.22.78,8.31,41.77-2.17,82.54,2.26,123.39,12.04,1.3-6.27,2.32-12.47,3.91-18.51,2.31-8.76,2.81-11.78,13.81-8.9,22.43,5.88,44.58,12.87,66.73,19.77,8.79,2.74,17.32,6.37,25.91,9.74,7.8,3.06,8.82,4.67,7.1,12.73-1.42,6.63-3.51,13.12-5.29,19.68-.22.8-.35,1.62-.64,2.96,37.11,18.09,70.52,41.55,98.98,71.03,6.96-4.78,13.68-9.53,20.54-14.05,4.55-2.99,7.8-2.77,11.32,1.58,13.44,16.6,26.87,33.21,39.78,50.21,7.28,9.59,13.82,19.78,20.14,30.04,5.28,8.58,4.1,11.81-4.46,16.84-4.57,2.68-9.11,5.44-13.63,8.2-.38.23-.56.79-.66.94,9.77,18.29,20.4,35.96,28.86,54.62,8.4,18.51,14.62,38.01,22,57.61ZM561.61,323.43c17.89,22.92,38.75,48.65,38.13,77.02s-6.52,44.31-16.05,62.59c-.36.58-.44,1.05.17,1.38,5.14,2.25,10.69,4.78,16.23,7.65,25.87,13.28,52.33,33.47,55.54,62.12,1.83,5.74,4.87,10.93,8.11,16.02,18.31,24.6,26.33,54.3,36.84,82.7.85,3.33,3.17,6.06,6.67,6.67,9.17,2.72,15.73,10.09,18.38,19.01,1.97,7.68,1.34,17.84,5.92,22.78,1.82,2.31,5.12,2.64,7.79,3.31,10.49,5.88,20.42,13.39,31.42,18.21-11.78-70.97,35.33-118.36,108.7-114.95,2.59.28,6.34-.09,7.43-2.36.71-1.27.95-3,1.24-4.51,46.02-197.41-55.74-390.05-245.68-468.55-157.04-67.57-347.73-12.32-458.5,113.37-96.83,110.99-120.86,278.98-68.43,415.51,67.53,168.22,260.05,284.12,440.75,250.57,93.2-20.82,184.57-63.08,246.95-137.6.53-.63.69-1-.3-.62-2.02.77-3.86,1.48-5.45.61-1.05-.49-2.04-2.12-2.57-3.26-2.63-5.42-5.41-12.85-11.07-15.07-113.02-22.31-88.14,88.91-152.78,105.74-.72.15-1.18.11-1.16-.55.32-2.06.48-4.56,2.29-5.88,17.26-12.98,25.76-35.41,26.12-56.84.6-8.55,1.31-17.11,1.72-25.67-.31-4.48-5.78-6.37-8.84-9.08-.49-.39-.91-.25-1.36.33-13.67,18.42-34.7,30.54-56.7,36.85-17.82,7.54-36.52,12.4-55.86,10.35-5.25,1.65-4,11.02-8.94,19.96-10.32,18.58-45.49,21.01-63.85,14.94-24.93-6.7-36.87-32.75-60.65-42.12-14.67-5.97-28.6-13.72-37.61-27.4-.55-1.25-1.56-.23-2.12.41-19.58,19.96-54.39-2.94-60.12-25.99-3.38-8.75-4.82-17.51-5.44-26.06.12-6.99-2.2-50.5,15.07-46.94-1.15-30.25,13.58-83.36,44.67-46.65.76.47,3.68,5.64,4.01,4.11,5.75-28.72,12.25-57.45,22.08-85.13.91-3.9-1.6-6.48-4.8-8.71-34.73-17.18-45.64-54.23-50.13-90.24.11-1.03-2.67.24-3.32.91-2.69,3.09-14.84,4.93-15.98-8.84-.26-3.15,1.65-44.71-1.71-36.76-12.16,63.24-.44,132.17-36.66,188.8-12.21,19.87-28.98,45.24-50.16,57.15-13.36,7.48-26.46,4.08-34.85-8.61-36.22-62.72-18.49-141.47,16.06-201,6.37-10.64,13.75-20.75,20.54-31.17,14.37-22.21,32.91-40.89,51.41-59.59,2.28-2.25,3.5-5.68,3.24-8.9-2.05-55.14,45.93-103.35,93.59-124.48,34.38-12.95,71.93-19.93,108.78-4.35s34.17,23.05,43.18,31.01c1.44,1.08,3.21,1.86,4.98,2.14,24.13,3.36,48.43,6.1,72.53,9.81,29.93,4.28,57,19.15,84.02,31.71,39.62,18.5,74.72,37.1,94.96,81.86,4.3,11.03,18.91,34.32,18.29,50.95-.21,5.75-3.19,10.71-8.86,12.46-17.19,4.99-35,5.19-51.73-.84-61.06-25.76-108.24-73.06-165.23-106.58-.54-.19-1.12-.81-.94.21,3.95,12.77,2.1,13.24-9.94,15.99v.08ZM962.98,609.9c-15.89,7.88-30.19,15.64-47.8,18.94-10.77,2.2-21.11,6.39-31.75,9.32-7.88,2.16-10.45,23.62-16.08,31.15-38.14,79.74-101.37,145.84-181.94,183.21-50.67,24.46-104.24,48.03-161.21,50.7-64.29,3.57-130.5-3.63-189.22-31.33-97.81-48.65-187.95-124.28-226.9-229.02C29.06,432.97,121.77,193.9,335.45,112.24c127.42-61.3,278.74-44.15,391.37,40.44,32.7,23.44,64.93,49.22,90.45,80.5,16.13,16.6,27.11,36.97,38.81,56.73,6.53,11.37,13.64,22.68,18.1,34.89,33.41,80.11,41.18,168.79,22.37,253.4-1.21,9.79-3.46,9.8,6.29,11.62,9.51,1.77,19.02,3.57,28.51,5.45,1.47.29,2.55.21,3.36-.3,1.35-.84,1.7-2.55,1.82-3.22,11.27-59.79,10.6-69.81,10.6-69.81-1.09-16.21,1.69-32.55.26-48.74-.06-.72-.35-3.35,1.25-5.23.67-.79,1.58-1.35,2.74-1.7,7.1-2.14,14.38-3.7,21.57-5.54,6.46-1.65,7.07-2.59,6.33-9.3-3.93-31.36-10.09-62.44-20.95-92.18-51.47,19.55-19.11,5.56-59.72-70.48-23.86-49.26-43.48-39.23-1-62.58-15.53-27.92-35.44-53.5-56.77-77.33-6.31-8.82-20.32,8.08-27.33,11.24-6.96,6.17-11.4-4.98-16.3-8.79-24.57-28.23-56.11-49.15-91.12-62.17-10.17-5.07.6-18.74,1.72-26.64,2.53-7.94,2.25-8.98-5.6-11.78-29.98-10.2-58.86-22.58-90.2-28.42-1.3,7.38-2.58,14.05-3.62,20.77-1.39,8.99-3.36,10.13-12.2,8.48-20.72-3.86-40.48-13.03-62.32-11.03-18.81-3.58-38.27-.94-57.4-.57-7.81.28-9.24-1.19-9.14-9.22.09-7.27.02-14.53.02-22.13-11.46-.75-104.63,3.91-101.75,16.82-.71,6.55,6.61,29.38-2.36,29.92-40.5,6.59-78.07,23.64-109.96,49.34-4.51,3.54-6.86,2.92-10.77-1.33-5.02-5.47-10.57-10.46-15.93-15.62-2.25-2.17-4.16-2.03-6.89-.02-26.34,19.35-50.04,40.93-72,65.27,6.29,5.47,11.86,10.41,17.54,15.22,5.3,4.49,5.33,7.58.73,12.76-12.05,13.59-26.52,25-36.2,40.76-47.22,60.5-21.95,79.29-66.82,50.11-5.84,9.41-50.52,94.19-35.08,96.6,5.65,4.29,27.82,8.55,23.83,17.45-10.97,38.87-16.16,80.76-11.91,121.01.63,5.09-1.78,6.2-5.76,7.17-7.41,1.81-14.74,3.93-22.07,6.06-3.18.92-5.11,2.76-4.37,6.59,6.62,31.66,9.89,63.99,21.11,94.52,8.11-2.88,15.28-5.44,22.47-7.97,6.34-2.23,8.23-1.15,10.51,5.4,6.07,17.48,8.29,36.22,17.84,52.59,7.97,20.98,20.57,39.48,32.46,58.44,4.57,7.47,3.69,9.66-4.15,13.87-6.08,3.27-11.93,6.94-18.57,10.84,5.71,9.63,55.83,87.54,64.93,79.02,7.59-3.87,18.27-17.13,26.95-13.88,26.93,31.59,60.32,57.19,99.49,71.73,4.42,1.84,5.19,4.64,3.63,9.26-2.52,7.49-4.21,15.29-5.76,23.05-.26,1.31,1.65,4.02,3.11,4.55,31.09,10.92,60.98,23.41,93.53,29.96,1.53-8.33,2.95-15.78,4.26-23.27,1.11-6.38,3.61-8.11,9.78-6.69,26.11,7.72,53.04,11.36,80.18,13.7,54.03,1.33,51.15-15.57,50.59,29.79,32.93,1.04,65.37-6.25,97.81-11.08,1.3-.21,3.31-2.15,3.32-3.3.06-7.29.43-14.71-.81-21.82-1.37-7.82-.49-10.04,7.59-11.46,39.92-5.56,75.02-25.15,106.71-49.18,4.33-3.07,6.73-1.84,9.66,1.22,4.9,5.11,9.97,10.06,14.79,15.24,7.31,13.93,72.57-55.68,80.48-64.44-44.45-33.14-11-16.82,32.54-88.94,29.77-45.37,11.13-54.48,52.51-29.53,15.47-31.27,35.78-63.22,38.44-98.46ZM648.23,737.7c-2.24-4.04-5.3-9.82-8.63-16.92-10.89-23.24-10.56-30.76-10.24-33.89.32-3.18,1.01-10.05,5.77-15.92,1.83-2.27,4.07-4.13,8.39-7.74,6.34-5.3,6.83-4.72,8.65-7.1,3.79-4.97,2.01-7.96,5.55-12.52,3.54-4.55,8.76-5.99,9.55-6.19,7.77-2.02,11.65,3.09,20.9,1.94,3.86-.48,6.86-1.83,8.68-2.81-3.98-13.92-9.5-29.83-17.27-46.89-7.89-17.33-16.4-32.13-24.41-44.4-1.51,6.2-2.43,11.26-2.97,14.51-4.08,24.55-7.03,38.26-3.79,51.54,1.13,4.62.93,9.06-.92,12.94-1.38,2.89-3.92,4.91-6.9,7.48-2.95,2.53-5.64,4.33-7.59,5.52-4.06,2.66-8.11,5.33-12.17,7.99-2.33,1.53-13.52,7.31-26.63,5.29-2.59-.4-8.39-1.36-14.1-5.5,0,0-1.59-1.16-3.04-2.54-6.66-6.4-8.15-16.78-13.33-32.95-1.95-6.1-3.6-12.31-4.95-18.62-1.34-6.31-1.42-12.29-.33-17.96,0,0,1.29-7.45,10.89-21.81.71-1.06,2.05-2.97,3.59-2.82.75.07,1.38.62,1.68,1.11,1.29,2.12-2.02,5.91-4.72,10.21-1.51,2.41-5.29,8.43-6.51,16.11-1.05,6.61.02,12.93.46,14.91,0,.04.04.16.06.27.6,2.66,1.2,5.33,2.07,8.49,1.02,3.71,2.05,6.81,2.78,8.95,7.12,20.83,7.1,21.24,8.31,23.12,1.92,2.98,6.41,9.93,14.52,12.49,12.61,3.99,26.66-4.96,30.91-7.66.69-.44,1.72-1.13,4.17-2.7,6.71-4.28,8.04-4.84,10.78-7.04,2.95-2.36,4.75-3.84,5.77-6.47,1.07-2.75.7-5.25.56-6.28-1.52-11.15-1.34-30.45-.72-35.42,1.12-9.03,3.11-16.87,5.21-23.29,4.76-16.62,1.16-28.18-.65-32.81-4.72-12.07-13.85-19.29-26.22-29.08-7.77-6.15-14.79-10.45-19.76-13.23-8.14-4.58-14.35-7.96-17.31-9.6-.65-.36-2.06-1.14-3.68-.79-1.43.31-2.37,1.36-2.84,2-4.26,7.45-10.74,17.24-20.28,27.33-6.78,7.17-13.2,12.49-18.13,16.17-5.78,4.33-16.78,12.45-33.07,18.47-15.8,5.84-28.76,6.83-37.94,7.45-9.97.68-24.06.69-40.69-2.5-3.41-.85-17.14-4.24-28.55-6.4-1.24-.23-3.32-.6-5.59.27-5.35,2.04-7.17,9.23-7.91,12.3-7.08,29.43-24.22,122.35-25.61,160.19-.18,5-.35,14.56,2.58,26.32,1.1,4.42,2.55,10.09,5.94,16.52,8.25,15.65,21.67,23.78,27.58,27.27,11.03,6.5,12.74,3.78,23.29,10.82,7.84,5.23,14.74,12.02,21.44,18.74,10.73,10.75,22.94,17.9,38.51,17.49,8.52-.22,17.13-.61,25.51-2.04,9.31-1.59,17.92-5.34,21-15.54,1.8-5.97,3.03-12.15,4.03-18.31,1.2-7.4,2.01-14.91,7.98-20.29,9.56-8.6,14.97-19.31,18.53-31.6,2.27-7.83.69-13.66-4.12-19.43-2.32-2.78-4.67-5.55-6.73-8.53-7.34-10.62-17.56-14.3-30.05-12.97-9.31,1-34.71,4.13-40.58,6.71-5.87,2.58-17.24,19.11-18.17,32.97-.13,2-.57,8.03-4.08,5.56-.95-1.39-.14-15.36,4.93-26.38,5.06-11.02,14.68-20.32,30.21-22.02s18.61-2.09,27.94-2.97c10.66-1.01,20.65,1.02,28.66,8.5,4.11,3.84,7.41,8.6,10.87,13.09,4.66,6.04,8.47,12.13,8.07,20.57-.24,5.13-2.58,8.88-4.1,13.27-4.05,11.75-10.94,21.45-19.51,30.17-3.62,3.69-4.41,8.17-4.2,12.84,26.22,2.14,49.46-7.05,72.45-16.84,4.66-1.99,12.26-5.5,21.01-12.08,9.01-6.77,15.24-13.88,19.21-19.05ZM457.06,536.65c29.8.11,51.62-9.48,58.32-12.65,7.54-3.56,34.78-17.27,55.23-48.52,6.23-9.52,32.25-49.28,20.9-92.39-5.8-22.02-20.08-40.13-22.1-42.64-5.93-7.39-11.76-12.87-16.21-16.63-45.3,8.12-81.34,20.06-106.84,30.08-41.49,16.31-60.86,29.82-68.78,35.64-19.45,14.31-33.4,29.05-42.58,40,.4,13.86,3.41,40.47,21.94,64.52,32.61,42.34,86.93,42.53,100.13,42.58ZM534.11,276.74c.11-.74-6.02-37.28-17.64-50.63-8.21-9.42-17.61-17.15-28.7-22.55-34.7-16.91-69.52-10.74-83.36-8.04-40.17,7.84-65.55,29.72-75.09,38.16-6.09,5.39-16.48,14.71-26.16,29.92-8.32,13.06-22.84,35.87-18.87,64.52,2.66,19.15,12.52,33.32,15.34,37.27,4.85,6.81,9.87,11.79,13.69,15.14,1.5-7.11,4.48-17.36,10.84-28.39,2.26-3.92,7-11.49,15.74-20.39,15.82-16.09,33.31-24.24,67.65-39.9,18.16-8.28,29.27-12.36,32.48-13.52,18.34-6.65,28.29-10.26,40-11.61,10.47-1.21,29.63-1.46,54.08,10.02ZM316.35,390.46c-3.21,12.59-4.25,35.28,3.02,38.07,5.31,2.04,13.39-7.26,16.14-10.33,33.86-37.79,97.07-65.82,102.97-68.39,33.04-14.4,97.54-31.47,113.81-32,1.82-.06,10.31-.15,11.61-3.87.63-1.78-.63-3.73-1.38-4.84-4.87-7.23-14.84-16.35-19.13-20.16-34.14-29.44-81.69-14.2-120.01,1.65-60.51,27.19-91.27,38.13-107.03,99.87ZM278.31,335.21c-1.66-.53-4.06,2.02-5.38,3.52-29.45,30.91-55.55,66.13-72.25,105.7-21.04,40.94-34.14,87.28-25.17,133.41,3.17,22.8,16.94,70.61,47.35,48.21,19.48-12.71,32.04-32.6,44.43-51.77,36.16-53.91,23.59-122.21,35.36-183.13,1.52-4.81.71-19.4-5.49-9.32-29.05,58.9-6.42,131.64-46.49,186.83-20.11,35.98-44.43,23.1-49.54-13.1-4.7-69.32,39.36-147.62,79.84-201.82,3.5-5.21,1.96-14.43-2.67-18.53ZM541.06,278.27c-.3.5-.6.99-.91,1.49,5.99,4.83,11.59,10.26,18.04,14.36,13.66,8.7,27.98,16.37,41.62,25.09,13.04,8.34,25.63,17.4,38.31,26.3,7.55,5.3,14.77,11.09,22.38,16.3,14.97,10.26,30.11,20.28,45.18,30.39,12.5,8.38,26.13,14.29,40.47,18.76,12.65,3.95,25.14,2.46,37.71-.34,4.52-1.01,6.76-3.56,7.64-7.99,1.8-9.14-2.79-16.87-5.87-24.66-6.67-16.86-14.69-33.11-25.25-48.04-6.66-9.41-14.14-17.96-22.92-25.35-12.54-10.55-27.08-17.9-41.67-25.04-13.7-6.71-27.5-13.26-41.49-19.35-10.63-4.63-21.37-9.39-32.52-12.38-15.35-4.12-31.05-7.12-46.75-9.71-15.27-2.51-30.73-3.89-46.83-5.86,2.95,7.19,5.5,13.42,7.68,18.75,11.95,1.4,23.51,1.67,34.5,4.31,14.93,3.58,29.76,8.15,44.04,13.79,19.28,7.62,38.43,15.81,56.84,25.3,22.38,11.53,43.51,25.3,60.25,44.59,7.99,9.21,14.02,19.7,16.26,31.92,1.47,8.04-3.48,14.82-11.55,15.24-3.82.2-7.96-.48-11.53-1.87-19.69-7.67-38.5-17.1-55.93-29.13-14.85-10.26-29.58-20.7-44.47-30.88-13.93-9.53-27.67-19.42-42.17-28.01-9.44-5.6-20.07-9.21-30.19-13.63-3.57-1.56-7.24-2.89-10.87-4.33ZM285.24,354.54c-2.64,3.67-5.32,7.06-7.63,10.68-10.76,16.88-23,33.05-31.74,50.93-12.02,24.59-23.93,49.37-31.22,76.11-5.54,20.33-10.24,40.48-7.3,61.65,1.21,8.68,2.37,17.4,7.54,24.94,2.66,3.88,6.31,5.51,10.8,5.95,8.5.84,13.07-5.24,16.47-10.99,6.31-10.69,11.62-22.03,16.72-33.37,8.62-19.16,14.62-39.09,15.96-60.24.87-13.75,1.23-27.58,3.17-41.19,3.11-21.83,8.14-43.26,18.32-63.13.63-1.24.92-3.38.27-4.42-3.51-5.63-7.37-11.04-11.37-16.9ZM956.11,606.29c-.18-.52-.35-1.03-.53-1.55-.94-.18-1.87-.44-2.81-.54-7.19-.73-14.43-1.15-21.57-2.18-14.43-2.1-28.76-4.99-43.23-6.69-17.7-2.07-35.33-.69-52.45,4.39-6.29,1.86-12.14,5.17-18.22,7.76-14.5,6.17-25.36,16.96-33.07,29.99-12.23,20.67-12.78,43.17-5.75,65.92.44,1.41,1.32,2.68,1.99,4.01,1.05-1.11,1.23-1.88,1.22-2.65-.33-22.08,8.21-40.56,23.58-55.87,3.45-3.43,7.78-7.94,14.96-4.93-1.45,1.73-2.22,3.4-3.51,4.06-12.29,6.29-19.01,17.28-24.39,29.19-6.29,13.9-7.83,28.49-3.88,43.32.92,3.46,3.41,6.51,5.18,9.75,6.97-28.28,13.82-40.35,29.55-59.91,9.99-12.42,21.97-22.68,36.22-29.96,14.39-7.35,30.22-10.67,45.55-15.36,9.31-2.85,18.97-4.68,28.11-7.97,7.95-2.86,15.39-7.13,23.06-10.78ZM536.58,256.06c1.42,6.31,2.29,11.14,3.68,15.83.44,1.5,1.99,3.21,3.44,3.78,5.54,2.18,11.54,3.35,16.85,5.96,16.62,8.17,33.53,15.96,49.32,25.55,14.47,8.8,27.65,19.72,41.35,29.77,4.36,3.2,8.31,7.01,12.87,9.86,10.2,6.38,20.4,12.87,31.1,18.34,11.45,5.85,23.32,10.95,35.3,15.65,7.06,2.76,12.29-2.26,10.87-9.7-.65-3.4-1.68-6.79-3.02-9.98-6.31-15.05-17.19-26.3-29.8-36.31-18.68-14.84-38.85-27.27-60.54-36.92-27.11-12.06-54.52-23.64-84.09-28.54-8.61-1.42-17.34-2.1-27.32-3.27ZM309.97,665.1c-4.06,1.74-4.43,14.24-4.65,15.48-.68,19.35,2.4,59.6,16.4,68.47,11.1,9.85,25.4,11.03,32.22,8.77,3.12-1.03,5.08-2.59,5.86-4.61.31-.81-.96-7.94-4.49-14.45-6.18-11.38-5.91-24.03-3.63-49.18,2.04-22.54,7.42-26.81,6.94-49.2-.21-9.69-1.4-17.41-7.1-23.1-3.97-3.96-12.45-9.26-18.15-6.39-7.86,3.97-9.24,23.1-11.98,61.35-.05.66-.42,6.09-2.06,6.29-2.42.29-5.29-15.19-9.36-13.45ZM784.56,728.94c-28.99-24.47-57.22-18.06-85.96.24,2.13-7.26,3.33-9.5,10.68-13.21,20.4-10.28,41.41-13.51,63.33-3.61-3.8-3.43-7.76-6.16-11.78-8.8-6.32-4.16-12.28-9.18-19.13-12.11-6.53-2.8-13.94-3.73-21.07-4.85-7.93-1.25-15.83,0-22.75,4.01-4.17,2.41-7.21,6.7-11.19,9.56-8.62,6.2-13.15,15.48-16.58,24.63-5.36,14.31-5.99,29.79-6.52,45.02-.52,15.01-1.04,29.93-8.27,43.64-2.22,4.21-4.22,8.53-6.59,13.37,10.63-6.68,14.93-17.33,20.32-27.02,5.86-10.53,10.55-21.73,16.6-32.14,9.03-15.53,21.57-27.32,38.79-33.77,12.61-4.73,25.36-7.42,38.91-5.98,6.67.71,13.43.67,21.2,1.02ZM660.7,744.64c2.45-18.34,8.06-33.47,19.58-46.09,11.75-12.88,26.28-18.83,44.68-17.68-1.46-7-2.46-13.5-4.2-19.8-2.86-10.38-19.72-19.02-30.43-15.96-2.87.82-6.61,2.87-10.18,1.22-1.62-.75-2.98-2.15-5.94-2.71-1.8-.34-3.24-.19-3.74-.13-2.96.38-5.22,1.85-6.45,2.97-3.15,2.87-3.54,7.07-3.87,8.9-1.99,11.11-15.66,12.66-21.62,23.39-4.64,8.35-2.05,17.64,1.36,29.9,4.6,16.53,13.64,28.47,20.8,35.99ZM871.06,643.81c-.37-.35-.75-.7-1.13-1.05-4.27,2.05-8.62,3.95-12.79,6.18-11.06,5.91-19.77,14.51-28.21,23.7-15.12,16.46-25,35.32-28.91,57.27-.48,2.72-.03,5.89.92,8.51,1.44,3.98,3.7,7.67,5.71,11.67,25.8-32.55,48.2-67.56,64.4-106.27Z"/>
    <path class="cls-7" d="M534.11,276.74c-8.06-4.51-21.48-10.62-38.73-11.89-17.79-1.31-30.94,3.19-56.29,11.87-10.04,3.43-25.31,11.44-46.5,20.06-19.2,7.8-34.11,21.3-49.29,34.74-10.33,9.14-18.73,19.6-25.31,31.57-2.61,4.74-4.37,9.95-6.94,15.94-4-4.74-7.89-9.05-11.43-13.63-7.92-10.27-14.03-21.57-15.45-34.6-.76-6.96.16-14.14.62-21.2.33-4.96.04-10.39,1.99-14.73,4.81-10.71,10.33-21.17,16.37-31.26,6.44-10.75,13.15-21.59,22.94-29.68,22.99-18.99,47.39-34.82,78.31-38.41,10.77-1.25,21.4-3.65,32.21-2.3,17.29,2.17,35.09,2.51,51.15,10.34,11.09,5.4,20.49,13.13,28.7,22.55,11.63,13.35,14.98,29.57,17.73,46.16.14.82.2,1.66.2,2.48,0,.62-.17,1.24-.28,1.98Z"/>
    <path class="cls-7" d="M342.4,284.4c18.18,1.46,34.99,1.4,48.09-12.35,2.63,4.36,4.62,8.23,7.21,11.64.92,1.21,3.53,2.1,4.96,1.7,1.3-.37,2.81-2.67,2.86-4.16.08-2.2-1.06-4.45-1.65-6.68-.62-2.34-1.2-4.68-1.87-7.33,11.2-1.32,20.2-6.16,27.72-13.24,4.44-4.17,7.66-9.63,12.07-15.33-3.06-1.86-6.51-3.89-9.88-6.03-9.96-6.32-23.56-3.88-30.67,5.56-4.17,5.53-8.31,11.09-12.36,16.5-6.12-.45-12.18-.87-18.25-1.34-11.34-.89-20.38,4.07-24.48,14.59-2.12,5.44-2.66,11.5-3.74,16.5Z"/>
    <path class="cls-9" d="M956.11,606.29c-7.67,3.65-15.11,7.92-23.06,10.78-9.14,3.29-18.8,5.12-28.11,7.97-15.32,4.69-31.15,8.01-45.55,15.36-14.25,7.28-26.23,17.54-36.22,29.96-15.74,19.57-22.58,31.64-29.55,59.91-1.77-3.24-4.26-6.28-5.18-9.75-3.94-14.84-2.4-29.42,3.88-43.32,5.38-11.9,12.1-22.9,24.39-29.19,1.29-.66,2.06-2.33,3.51-4.06-7.18-3.01-11.51,1.49-14.96,4.93-15.37,15.31-23.9,33.79-23.58,55.87.01.77-.17,1.54-1.22,2.65-.67-1.33-1.56-2.6-1.99-4.01-7.04-22.75-6.48-45.25,5.75-65.92,7.71-13.03,18.57-23.82,33.07-29.99,6.08-2.59,11.93-5.9,18.22-7.76,17.12-5.07,34.76-6.46,52.45-4.39,14.47,1.7,28.8,4.59,43.23,6.69,7.15,1.04,14.38,1.46,21.57,2.18.95.1,1.87.35,2.81.54.18.52.35,1.03.53,1.55Z"/>
    <path class="cls-8" d="M536.58,256.06c9.99,1.17,18.72,1.85,27.32,3.27,29.57,4.89,56.99,16.47,84.09,28.54,21.69,9.65,41.86,22.09,60.54,36.92,12.61,10.02,23.49,21.26,29.8,36.31,1.34,3.19,2.37,6.58,3.02,9.98,1.42,7.44-3.81,12.47-10.87,9.7-11.98-4.69-23.85-9.8-35.3-15.65-10.7-5.47-20.9-11.95-31.1-18.34-4.56-2.85-8.51-6.66-12.87-9.86-13.7-10.05-26.88-20.98-41.35-29.77-15.79-9.6-32.7-17.38-49.32-25.55-5.31-2.61-11.31-3.78-16.85-5.96-1.45-.57-3-2.28-3.44-3.78-1.38-4.68-2.26-9.52-3.68-15.83Z"/>
    <path class="cls-9" d="M784.56,728.94c-7.77-.35-14.53-.31-21.2-1.02-13.55-1.44-26.3,1.25-38.91,5.98-17.22,6.45-29.75,18.25-38.79,33.77-6.06,10.41-10.74,21.61-16.6,32.14-5.39,9.68-9.69,20.33-20.32,27.02,2.38-4.84,4.37-9.17,6.59-13.37,7.23-13.71,7.75-28.63,8.27-43.64.52-15.23,1.15-30.71,6.52-45.02,3.43-9.15,7.96-18.43,16.58-24.63,3.97-2.86,7.01-7.15,11.19-9.56,6.92-4,14.82-5.26,22.75-4.01,7.12,1.12,14.54,2.06,21.07,4.85,6.85,2.93,12.81,7.96,19.13,12.11,4.02,2.65,7.99,5.37,11.78,8.8-21.92-9.91-42.93-6.67-63.33,3.61-7.35,3.7-8.55,5.95-10.68,13.21,28.74-18.31,56.97-24.72,85.96-.24Z"/>
    <path class="cls-10" d="M871.06,643.81c-16.2,38.72-38.59,73.72-64.4,106.27-2.01-4-4.27-7.69-5.71-11.67-.95-2.62-1.4-5.79-.92-8.51,3.91-21.94,13.79-40.81,28.91-57.27,8.44-9.19,17.15-17.79,28.21-23.7,4.17-2.23,8.52-4.13,12.79-6.18.38.35.75.7,1.13,1.05Z"/>
    <path class="cls-2" d="M409.58,571.23c.14-.1.95-.67,1.94-.52,4.14.66,4.9,13.05,4.94,13.91,1.06,2.93,2.12,5.86,3.19,8.8,3.46,9.03,7.25,14.95,10.38,18.87.14.18.27.34.44.54,2.54,3.13,7.39,9.1,12.02,12.97,4.25,3.55,8.21,5.25,11.61,6.71,9.08,3.89,12.42,3.17,22,7.05,2.26.91,4.69,2.22,7.52,4.25,6.14,4.41,12.83,8.07,18.71,12.83,6.01,4.87,12.61,6.18,19.94,5.44,10.37-1.05,19.21-5.8,27.25-11.96,13.46-10.31,7.23-29.63,6.61-32.39-1.55-6.89-4.68-11.7-7.44-15.94,0,0-6.74-10.37-16.52-17.16-.18-.12-.46-.32-.6-.41-2.04-1.4-6.47-4.45-11.23-7.27-5.86-3.48-7.55-3.86-7.86-5.73-.24-1.44.44-3.17,1.64-3.79,1.94-1,4.8,1.11,6.69,2.49,4.65,3.4,9.8,7.1,16.2,11.67,4,2.7,19.73,13.98,23.91,34.73.87,4.31,5.57,24.36-6.96,37.25-5.9,6.07-12.47,9.16-19.25,11.83-4.37,1.73-13.29,5.14-21.64,3.1-3.76-.92-7.17-2.77-7.17-2.77-3.23-1.75-5.26-3.64-6.38-4.65-.9-.81-8.61-7.69-17.42-12.45-2.92-1.58-6.14-2.87-12.52-5.29-11.99-4.55-17.78-6.07-21.55-7.48-24.05-8.99-34.1-38.8-37-47.4-1.33-3.94-4.95-14.69-1.45-17.25Z"/>
    <g>
      <g id="_Repetici贸n_de_espejo_" data-name="&amp;lt;Repetici贸n de espejo&amp;gt;">
        <g class="cls-12">
          <path class="cls-2" d="M538.42,370.64c.02,3.78,5.31,5.03,9.04,8.8,7.2,7.28,7.74,23.13.19,31.15-.95,1.01-5.78,5.87-11.28,4.93-8.01-1.37-12.82-14.17-12.46-22.48.81-18.75,18.77-31.32,22.06-33.55-1.25,1.11-3.05,2.9-4.77,5.42-1.76,2.57-2.78,4.06-2.77,5.73Z"/>
        </g>
      </g>
      <g id="_Repetici贸n_de_espejo_-2" data-name="&amp;lt;Repetici贸n de espejo&amp;gt;">
        <g class="cls-11">
          <path class="cls-2" d="M384.32,443.88c2.92,2.41.55,7.3,1.12,12.56,1.1,10.18,13.05,20.61,24.03,19.81,1.38-.1,8.2-.77,10.94-5.63,3.99-7.08-2.89-18.89-9.56-23.86-15.05-11.21-36.14-5.22-39.95-4.08,1.66-.27,4.17-.53,7.22-.28,3.1.26,4.9.41,6.19,1.47Z"/>
        </g>
      </g>
    </g>
    <path class="cls-9" d="M346.81,281.37c-3.18-4.72,3.57-14.3,4.18-15.17.19-.28,2.74-3.84,6.45-6.45,11.97-8.44,31.32-3.73,33.81-3.1.85-2.27,8.53-21.94,25.03-24.52,6.18-.96,18.29-.86,20.96,5.16,2.67,6.02-1.13,10.25-4.05,12.89-2.91,2.64-12.49,8.87-15.62,9.3-5.79,1.38-18.4,6.58-18.15,7.27,0,0,.91-1.04.04.04s0,0,0,0c.41,1.24,1.11,3.38,1.97,6.11.23.71,1.98,6.34.77,7.61-.03.04-.08.08-.08.08-.29.29-1.18,1.06-2.24.95-2.75-.29-8-12.26-7.35-11.35.06.08.08.15.06.2-.07.18-5.37.68-8.71,1.82-2.44.83-3.13,1.78-6.06,3.79,0,0-4.96,3.38-11.1,5.68-5.49,2.05-16.79,4.35-19.93-.31Z"/>
    <path class="cls-2" d="M513.57,467.87c1.18-1.58,3.68-.42,3.21,1.5-1.84,7.55-9.45,17.72-17.35,22.33-6.49,3.79-20.92,3.29-29.64-.24-1.88-.76-1.28-3.57.75-3.49,17.79.76,32.21-5.69,43.02-20.11Z"/>
    <path class="cls-2" d="M344.87,282.93c-3.62-4.96,1.75-16.34,8.71-22.66,13.49-12.26,33.63-6.15,35.29-5.62.92-2.12,9.21-20.54,27.29-23.55,10.02-1.67,23.02,1.38,24.52,7.35,1.66,6.61-10.56,17.63-22.32,22.45-8.19,3.36-15.36,3.39-16.61,7.87-1.25,4.5,4.6,9.44,2.3,12.64-.79,1.1-2.33,1.7-3.65,1.6-4.73-.37-5.11-9.6-9.9-10.97-3.66-1.05-6.82,3.36-11.75,6.93-11.53,8.35-29.59,9.82-33.87,3.95ZM346.81,281.37c3.87,5.12,22.02-.88,28.7-4.33,6.65-3.44,11.92-8.99,16.28-6.94,2.13,1,4.1,3.8,4.68,4.61,2.36,3.35,3.03,6.67,4.5,6.6.63-.03,1.05-.66,1.08-.71.92-1.43-1.22-3.41-2.45-7.28-.63-1.98-1.45-4.56-.39-6.63.99-1.93,3.16-2.5,5.85-3.33,1.32-.41,2.63-.86,3.94-1.34,0,0,2.76-.88,8.07-3.04,4.86-1.98,21.63-11.67,20.08-18.79-1.07-4.89-10.63-7.91-18.04-7.37-18.13,1.32-27.29,24.26-27.72,25.38-3.48-1.23-9.12-2.75-16.13-2.58-4.24.1-10.32.25-16.11,3.62-9.32,5.43-15.55,17.88-12.34,22.13Z"/>
    <path class="cls-6" d="M399.75,255.76c8.71-4.38,17.27-8.69,25.99-13.08-8.97-2.02-24.13,5.58-25.99,13.08Z"/>
    <path class="cls-6" d="M382.86,263.55c-6.45-3.95-24.38,3.71-26.26,10.88,8.6-3.56,17.45-7.23,26.26-10.88Z"/>
    <path class="cls-2" d="M399.75,255.76c1.87-7.5,17.02-15.1,25.99-13.08-8.72,4.39-17.29,8.7-25.99,13.08Z"/>
    <path class="cls-2" d="M382.86,263.55c-8.81,3.65-17.66,7.32-26.26,10.88,1.88-7.17,19.81-14.83,26.26-10.88Z"/>
    <path class="cls-2" d="M430.17,612.48l.29.36s-1.85-2.24-.29-.36Z"/>
  </g>
</svg>